<?xml version="1.0" encoding="utf-8"?>
<!-- Generator: Adobe Illustrator 26.0.3, SVG Export Plug-In . SVG Version: 6.00 Build 0)  -->
<svg version="1.1" id="Layer_1" xmlns="http://www.w3.org/2000/svg" xmlns:xlink="http://www.w3.org/1999/xlink" x="0px" y="0px"
	 viewBox="0 0 1125 1095.5" style="enable-background:new 0 0 1125 1095.5;" xml:space="preserve">
<style type="text/css">
	.st0{fill:none;stroke:#000000;stroke-width:29;stroke-miterlimit:10;}
</style>
<g>
	<path class="st0" d="M822,1022c-25-0.1-48.7-6.8-72-14.9c-59.3-20.6-114.4-49.7-167.8-82.2c-85-51.8-163.5-112-233.1-183.4
		c-57.5-59.1-107.4-124.2-151.4-193.9c-34.6-54.7-65.5-111.3-88.2-172.1c-8-21.4-14.8-43.1-17.5-65.9c-3.3-27.8,3.3-53.9,14.7-79
		c17.7-38.6,44.6-70,76.7-97.3c16.6-14.1,32.8-28.9,52.1-39.5c13.9-7.6,28-14.8,44-17c10.8-1.5,20.8,0.9,30.5,5.4
		c24.3,11.2,43.9,28.4,60.8,48.6c32.6,38.9,58.2,82.3,80.2,127.9c6.3,13,12.5,26.1,16.8,40c4.9,16,2.1,29.9-9.4,42
		c-4.5,4.7-9.4,9-14.8,12.6c-21.5,14-43.3,27.4-67.4,36.7c-7.7,3-15.3,6.7-22.7,10.4c-23.7,11.8-36.2,35.3-33.1,61.7
		c0.8,6.5,2.4,12.7,5.1,18.7c19.6,44.5,48.1,83.2,79.7,119.8c63.7,73.9,137.4,135.6,221.9,184.4c23,13.3,48.8,10.7,70.3-7.7
		c8.8-7.6,15.8-16.5,21.1-27c12.6-24.9,23.7-50.7,38.5-74.5c4.4-7.1,9.1-13.9,14.3-20.4c13.8-17.1,37.8-22.3,57.3-11.9
		c43.3,23.1,82.4,52.1,120.3,83c21.6,17.6,43,35.3,61.9,55.9c5.1,5.5,9.7,11.4,14.2,17.4c11.9,15.6,11.4,33.1,7.5,51.1
		c-3.7,17.4-11.9,32.8-22,47.2c-31.1,44.6-70.2,80.4-118.1,106.3C869.2,1016.7,845.8,1022,822,1022z"/>
</g>
</svg>
