<svg width="602" height="92" viewBox="0 0 602 92" fill="none" xmlns="http://www.w3.org/2000/svg">
<path d="M114.24 40.4598V46.2298C111.14 46.6598 108.47 47.1798 106.24 47.7698C104.01 48.3598 102.15 49.0098 100.66 49.7198C99.17 50.4298 98.02 51.2098 97.22 52.0498C96.41 52.8898 95.84 53.8198 95.5 54.8398C95.16 55.8598 94.99 56.9698 94.99 58.1398C94.99 59.8198 95.27 61.1598 95.83 62.1898C96.39 63.2198 97.19 63.9698 98.25 64.4698C99.3 64.9698 100.58 65.2098 102.06 65.2098C103.54 65.2098 105.05 64.8398 106.39 64.0898C107.72 63.3498 109.03 62.2098 110.3 60.6898C111.57 59.1698 112.86 57.2298 114.16 54.8698L114.63 59.9898C113.39 62.5998 111.96 64.7798 110.35 66.5498C108.74 68.3198 106.89 69.6498 104.81 70.5498C102.73 71.4498 100.36 71.8998 97.69 71.8998C94.4 71.8998 91.58 71.4198 89.22 70.4598C86.86 69.4998 85.06 68.0298 83.82 66.0398C82.58 64.0598 81.96 61.6098 81.96 58.6898C81.96 56.0798 82.55 53.8198 83.73 51.8998C84.91 49.9798 86.78 48.2998 89.36 46.8798C91.93 45.4498 95.27 44.2298 99.36 43.1998C103.45 42.1798 108.42 41.2598 114.25 40.4498L114.24 40.4598ZM114.43 70.8898L113.31 60.4698L112.75 60.3798V34.2298C112.75 32.4298 112.5 30.9898 112.01 29.8998C111.51 28.8198 110.66 28.0098 109.45 27.4798C108.24 26.9498 106.55 26.6898 104.38 26.6898C101.22 26.6898 98.61 27.1298 96.56 27.9898C94.51 28.8598 93.05 29.7898 92.19 30.7798C91.88 30.4098 91.76 29.9598 91.82 29.4298C91.88 28.8998 92.1 28.4098 92.47 27.9398C92.84 27.4698 93.37 27.0698 94.05 26.7298C94.73 26.3898 95.54 26.1898 96.47 26.1298V36.9198H84.93V25.2898C85.86 24.6098 87.24 23.8498 89.07 23.0098C90.9 22.1698 93.19 21.4298 95.96 20.7798C98.72 20.1298 101.9 19.7998 105.5 19.7998C108.6 19.7998 111.42 20.0798 113.97 20.6398C116.51 21.1998 118.68 22.0998 120.48 23.3398C122.28 24.5798 123.67 26.1598 124.67 28.0898C125.66 30.0098 126.16 32.3098 126.16 34.9798V61.4998C126.16 62.1798 126.39 62.7298 126.86 63.1298C127.32 63.5298 127.99 63.8398 128.86 64.0598C129.73 64.2798 130.78 64.4798 132.02 64.6598L132.58 64.8498V70.8998H114.44L114.43 70.8898Z" fill="#0662F4"/>
<path d="M160.39 19.8096C163.31 19.8096 165.88 20.3196 168.11 21.3496C170.34 22.3696 172.34 23.8796 174.11 25.8596C175.88 27.8496 177.41 30.2696 178.72 33.1196L178.53 39.6296C176.98 36.9596 175.44 34.7396 173.92 32.9796C172.4 31.2096 170.82 29.8996 169.17 29.0296C167.53 28.1596 165.65 27.7296 163.54 27.7296C161.55 27.7296 159.82 28.1196 158.33 28.8896C156.84 29.6696 155.6 30.8396 154.61 32.4296C153.62 34.0096 152.89 35.9696 152.42 38.2896C151.96 40.6196 151.72 43.2996 151.72 46.3396C151.72 49.3796 151.92 51.8196 152.32 54.0196C152.72 56.2196 153.37 58.0796 154.27 59.5996C155.17 61.1196 156.33 62.2496 157.76 62.9996C159.19 63.7396 160.86 64.1196 162.78 64.1196C164.95 64.1196 166.89 63.6696 168.6 62.7696C170.31 61.8696 171.96 60.4796 173.58 58.5796C175.19 56.6896 176.87 54.2896 178.6 51.3696L178.69 57.7896C177.14 60.7696 175.48 63.3096 173.71 65.4196C171.94 67.5296 169.9 69.1396 167.57 70.2596C165.24 71.3796 162.53 71.9296 159.43 71.9296C154.78 71.9296 150.82 70.8596 147.57 68.7196C144.32 66.5796 141.83 63.5896 140.13 59.7396C138.42 55.8896 137.57 51.4296 137.57 46.3396C137.57 41.2496 138.48 36.6296 140.32 32.6596C142.15 28.6896 144.77 25.5596 148.18 23.2596C151.59 20.9696 155.65 19.8196 160.37 19.8196L160.39 19.8096ZM189.52 61.4896C189.52 62.6096 190.05 63.3496 191.1 63.7196C192.15 64.0896 193.58 64.3996 195.38 64.6496L195.94 64.8396V70.8896H177.7L176.49 59.6296L175.84 60.1896V10.2196C175.84 9.4096 175.64 8.81962 175.24 8.44962C174.84 8.07962 174.2 7.7496 173.33 7.4696C172.46 7.1896 171.41 6.9296 170.17 6.6796L169.33 6.48959V0.349609H189.52V61.4796V61.4896Z" fill="#0662F4"/>
<path d="M234.74 40.4598V46.2298C231.64 46.6598 228.97 47.1798 226.74 47.7698C224.51 48.3598 222.65 49.0098 221.16 49.7198C219.67 50.4298 218.52 51.2098 217.72 52.0498C216.91 52.8898 216.34 53.8198 216 54.8398C215.66 55.8598 215.49 56.9698 215.49 58.1398C215.49 59.8198 215.77 61.1598 216.33 62.1898C216.89 63.2198 217.69 63.9698 218.75 64.4698C219.8 64.9698 221.08 65.2098 222.56 65.2098C224.04 65.2098 225.55 64.8398 226.89 64.0898C228.22 63.3498 229.53 62.2098 230.8 60.6898C232.07 59.1698 233.36 57.2298 234.66 54.8698L235.13 59.9898C233.89 62.5998 232.46 64.7798 230.85 66.5498C229.24 68.3198 227.39 69.6498 225.31 70.5498C223.23 71.4498 220.86 71.8998 218.19 71.8998C214.9 71.8998 212.08 71.4198 209.72 70.4598C207.36 69.4998 205.56 68.0298 204.32 66.0398C203.08 64.0598 202.46 61.6098 202.46 58.6898C202.46 56.0798 203.05 53.8198 204.23 51.8998C205.41 49.9798 207.28 48.2998 209.86 46.8798C212.43 45.4498 215.77 44.2298 219.86 43.1998C223.95 42.1798 228.92 41.2598 234.75 40.4498L234.74 40.4598ZM234.93 70.8898L233.81 60.4698L233.25 60.3798V34.2298C233.25 32.4298 233 30.9898 232.51 29.8998C232.01 28.8198 231.16 28.0098 229.95 27.4798C228.74 26.9498 227.05 26.6898 224.88 26.6898C221.72 26.6898 219.11 27.1298 217.06 27.9898C215.01 28.8598 213.55 29.7898 212.69 30.7798C212.38 30.4098 212.26 29.9598 212.32 29.4298C212.38 28.8998 212.6 28.4098 212.97 27.9398C213.34 27.4698 213.87 27.0698 214.55 26.7298C215.23 26.3898 216.04 26.1898 216.97 26.1298V36.9198H205.43V25.2898C206.36 24.6098 207.74 23.8498 209.57 23.0098C211.4 22.1698 213.69 21.4298 216.46 20.7798C219.22 20.1298 222.4 19.7998 226 19.7998C229.1 19.7998 231.92 20.0798 234.47 20.6398C237.01 21.1998 239.18 22.0998 240.98 23.3398C242.78 24.5798 244.17 26.1598 245.17 28.0898C246.16 30.0098 246.66 32.3098 246.66 34.9798V61.4998C246.66 62.1798 246.89 62.7298 247.36 63.1298C247.82 63.5298 248.49 63.8398 249.36 64.0598C250.23 64.2798 251.28 64.4798 252.52 64.6598L253.08 64.8498V70.8998H234.94L234.93 70.8898Z" fill="#0662F4"/>
<path d="M258.19 70.8898V65.3098H258.47C260.33 65.3098 261.82 64.9798 262.94 64.3298C264.06 63.6798 264.61 62.3897 264.61 60.4697V30.5997C264.61 29.8597 264.41 29.2798 264 28.8798C263.6 28.4798 262.98 28.1498 262.14 27.8998C261.3 27.6498 260.26 27.3997 259.02 27.1597L258.18 26.9697V20.7397H276.51L277.72 31.9097L278.28 32.1898V64.4797C278.28 64.6697 278.56 64.8198 279.12 64.9498C279.68 65.0698 280.33 65.1697 281.08 65.2297C281.82 65.2897 282.51 65.3198 283.13 65.3198H283.5V70.8998H258.19V70.8898ZM314.2 70.8898H290.1V65.3098H290.38C291.06 65.3098 291.79 65.2797 292.57 65.2197C293.35 65.1597 294 65.0698 294.53 64.9398C295.06 64.8198 295.32 64.6597 295.32 64.4697V35.3497C295.32 33.7397 295.15 32.3997 294.81 31.3497C294.47 30.2997 293.91 29.4997 293.13 28.9797C292.35 28.4497 291.25 28.1898 289.83 28.1898C288.28 28.1898 286.77 28.5797 285.32 29.3497C283.86 30.1297 282.39 31.2998 280.9 32.8898C279.41 34.4698 277.83 36.4997 276.16 38.9797L276.35 32.2798C277.96 29.6698 279.7 27.4598 281.56 25.6298C283.42 23.7998 285.5 22.3597 287.79 21.2997C290.08 20.2497 292.54 19.7197 295.14 19.7197C298.05 19.7197 300.55 20.2798 302.63 21.3898C304.71 22.5098 306.29 24.1698 307.37 26.3698C308.46 28.5698 309 31.3197 309 34.5997V64.4697C309 64.6597 309.28 64.8098 309.84 64.9398C310.4 65.0598 311.06 65.1597 311.84 65.2197C312.62 65.2797 313.34 65.3098 314.03 65.3098H314.22V70.8898H314.2ZM346.21 70.8898H320.81V65.3098H321.09C321.77 65.3098 322.5 65.2797 323.28 65.2197C324.06 65.1597 324.71 65.0698 325.24 64.9398C325.77 64.8198 326.03 64.6597 326.03 64.4697V35.3497C326.03 33.7397 325.86 32.3997 325.52 31.3497C325.18 30.2997 324.62 29.4997 323.85 28.9797C323.07 28.4497 321.97 28.1898 320.55 28.1898C319 28.1898 317.48 28.5898 315.99 29.3998C314.5 30.2098 313.03 31.3898 311.57 32.9398C310.11 34.4898 308.55 36.4798 306.87 38.8998L307.06 32.2897C308.67 29.6797 310.42 27.4498 312.32 25.5898C314.21 23.7298 316.28 22.2898 318.51 21.2598C320.74 20.2398 323.16 19.7197 325.77 19.7197C328.75 19.7197 331.26 20.2798 333.31 21.3898C335.36 22.5098 336.94 24.1698 338.05 26.3698C339.17 28.5698 339.73 31.3197 339.73 34.5997V60.4697C339.73 62.3897 340.29 63.6798 341.4 64.3298C342.52 64.9798 344.01 65.3098 345.87 65.3098H346.24V70.8898H346.21Z" fill="#0662F4"/>
<path d="M352.35 11.2501V4.83008H384.17C389.5 4.83008 394.33 5.5301 398.64 6.9201C402.95 8.3201 406.67 10.3801 409.81 13.1101C412.94 15.8401 415.35 19.2501 417.02 23.3501C418.69 27.4501 419.53 32.1901 419.53 37.5901C419.53 42.9901 418.69 47.6701 417.02 51.8301C415.35 55.9901 412.94 59.4801 409.81 62.3001C406.68 65.1201 402.96 67.2601 398.64 68.7201C394.33 70.1801 389.51 70.9101 384.17 70.9101H352.35V64.4901H353.47C355.27 64.4901 356.79 64.2701 358.03 63.8401C359.27 63.4101 359.89 62.5101 359.89 61.1401V14.6201C359.89 13.3201 359.27 12.4301 358.03 11.9701C356.79 11.5001 355.27 11.2701 353.47 11.2701H352.35V11.2501ZM383.25 11.7101H374.22V64.0001H383.25C386.66 64.0001 389.67 63.4401 392.28 62.3301C394.88 61.2101 397.09 59.5501 398.89 57.3501C400.69 55.1501 402.05 52.3901 402.98 49.0701C403.91 45.7501 404.38 41.9201 404.38 37.5801C404.38 33.2401 403.92 29.4401 402.98 26.1801C402.04 22.9201 400.68 20.2201 398.89 18.0801C397.09 15.9401 394.89 14.3401 392.28 13.2901C389.67 12.2401 386.66 11.7101 383.25 11.7101Z" fill="#0662F4"/>
<path d="M460.1 40.4598V46.2298C457 46.6598 454.33 47.1798 452.1 47.7698C449.87 48.3598 448.01 49.0098 446.52 49.7198C445.03 50.4298 443.88 51.2098 443.08 52.0498C442.27 52.8898 441.7 53.8198 441.36 54.8398C441.02 55.8598 440.85 56.9698 440.85 58.1398C440.85 59.8198 441.13 61.1598 441.69 62.1898C442.25 63.2098 443.05 63.9698 444.11 64.4698C445.16 64.9698 446.44 65.2098 447.92 65.2098C449.4 65.2098 450.91 64.8398 452.25 64.0898C453.58 63.3498 454.89 62.2098 456.16 60.6898C457.43 59.1698 458.72 57.2298 460.02 54.8698L460.49 59.9898C459.25 62.5998 457.82 64.7798 456.21 66.5498C454.6 68.3198 452.75 69.6498 450.67 70.5498C448.59 71.4498 446.22 71.8998 443.55 71.8998C440.26 71.8998 437.44 71.4198 435.08 70.4598C432.72 69.4998 430.92 68.0298 429.68 66.0398C428.44 64.0598 427.82 61.6098 427.82 58.6898C427.82 56.0798 428.41 53.8198 429.59 51.8998C430.77 49.9798 432.64 48.2998 435.22 46.8798C437.79 45.4498 441.13 44.2298 445.22 43.1998C449.31 42.1798 454.28 41.2598 460.11 40.4498L460.1 40.4598ZM460.29 70.8898L459.17 60.4698L458.61 60.3798V34.2298C458.61 32.4298 458.36 30.9898 457.87 29.8998C457.37 28.8198 456.52 28.0098 455.31 27.4798C454.1 26.9498 452.41 26.6898 450.24 26.6898C447.08 26.6898 444.47 27.1298 442.42 27.9898C440.37 28.8598 438.91 29.7898 438.05 30.7798C437.74 30.4098 437.62 29.9598 437.68 29.4298C437.74 28.8998 437.96 28.4098 438.33 27.9398C438.7 27.4698 439.23 27.0698 439.91 26.7298C440.59 26.3898 441.4 26.1898 442.33 26.1298V36.9198H430.79V25.2898C431.72 24.6098 433.1 23.8498 434.93 23.0098C436.76 22.1698 439.05 21.4298 441.82 20.7798C444.58 20.1298 447.76 19.7998 451.36 19.7998C454.46 19.7998 457.28 20.0798 459.83 20.6398C462.37 21.1998 464.54 22.0998 466.34 23.3398C468.14 24.5798 469.53 26.1598 470.53 28.0898C471.52 30.0098 472.02 32.3098 472.02 34.9798V61.4998C472.02 62.1798 472.25 62.7298 472.72 63.1298C473.19 63.5298 473.85 63.8398 474.72 64.0598C475.59 64.2798 476.64 64.4798 477.88 64.6598L478.44 64.8498V70.8998H460.3L460.29 70.8898Z" fill="#0662F4"/>
<path d="M511.65 91.6401H483.55V86.0601H483.83C485.07 86.0601 486.14 85.9201 487.04 85.6401C487.94 85.3601 488.64 84.8601 489.13 84.1501C489.63 83.4401 489.87 82.46 489.87 81.22V30.6C489.87 29.86 489.67 29.2801 489.27 28.8801C488.87 28.4801 488.25 28.1501 487.41 27.9001C486.57 27.6501 485.53 27.4 484.29 27.16L483.45 26.97V20.7401H501.78L502.99 33.3901L503.55 33.7601V85.22C503.55 85.41 503.89 85.5601 504.57 85.6901C505.25 85.8101 506.11 85.91 507.13 85.97C508.15 86.03 509.13 86.0601 510.06 86.0601H511.64V91.6401H511.65ZM519 71.91C516.27 71.91 513.82 71.4401 511.65 70.5101C509.48 69.5801 507.52 68.22 505.79 66.42C504.05 64.62 502.5 62.45 501.14 59.91L501.33 52.7501C502.76 55.1701 504.2 57.2201 505.66 58.8901C507.12 60.5601 508.67 61.8501 510.31 62.7501C511.95 63.6501 513.8 64.1 515.85 64.1C517.9 64.1 519.65 63.7001 521.11 62.8901C522.57 62.0801 523.79 60.8901 524.79 59.3101C525.78 57.7301 526.51 55.7701 526.98 53.4501C527.44 51.1201 527.68 48.4401 527.68 45.4001C527.68 42.3601 527.46 39.93 527.03 37.72C526.6 35.52 525.94 33.6701 525.08 32.1801C524.21 30.6901 523.08 29.5701 521.68 28.8301C520.28 28.0901 518.59 27.7101 516.61 27.7101C514.5 27.7101 512.59 28.13 510.89 28.97C509.18 29.81 507.55 31.13 506 32.92C504.45 34.72 502.87 36.9801 501.25 39.7101L501.16 33.1C502.71 30.25 504.37 27.8301 506.14 25.8401C507.91 23.8601 509.91 22.3501 512.14 21.3301C514.37 20.3101 516.98 19.79 519.96 19.79C524.61 19.79 528.57 20.8601 531.82 23.0001C535.07 25.1401 537.56 28.13 539.26 31.98C540.97 35.83 541.82 40.2901 541.82 45.3801C541.82 50.4701 540.9 55.0901 539.07 59.0601C537.24 63.0301 534.63 66.1601 531.25 68.4601C527.87 70.7601 523.79 71.9001 519.01 71.9001L519 71.91Z" fill="#0662F4"/>
<path d="M573.4 91.6401H545.3V86.0601H545.58C546.82 86.0601 547.89 85.9201 548.79 85.6401C549.69 85.3601 550.39 84.8601 550.88 84.1501C551.38 83.4401 551.62 82.46 551.62 81.22V30.6C551.62 29.86 551.42 29.2801 551.02 28.8801C550.62 28.4801 550 28.1501 549.16 27.9001C548.32 27.6501 547.28 27.4 546.04 27.16L545.2 26.97V20.7401H563.53L564.74 33.3901L565.3 33.7601V85.22C565.3 85.41 565.64 85.5601 566.32 85.6901C567 85.8101 567.86 85.91 568.88 85.97C569.9 86.03 570.88 86.0601 571.81 86.0601H573.39V91.6401H573.4ZM580.75 71.91C578.02 71.91 575.57 71.4401 573.4 70.5101C571.23 69.5801 569.27 68.22 567.54 66.42C565.8 64.62 564.25 62.45 562.89 59.91L563.08 52.7501C564.51 55.1701 565.95 57.2201 567.41 58.8901C568.87 60.5601 570.42 61.8501 572.06 62.7501C573.7 63.6501 575.55 64.1 577.6 64.1C579.65 64.1 581.4 63.7001 582.86 62.8901C584.32 62.0801 585.54 60.8901 586.54 59.3101C587.53 57.7301 588.26 55.7701 588.73 53.4501C589.19 51.1201 589.43 48.4401 589.43 45.4001C589.43 42.3601 589.21 39.93 588.78 37.72C588.35 35.52 587.69 33.6701 586.83 32.1801C585.96 30.6901 584.83 29.5701 583.43 28.8301C582.03 28.0901 580.34 27.7101 578.36 27.7101C576.25 27.7101 574.34 28.13 572.64 28.97C570.93 29.81 569.3 31.13 567.75 32.92C566.2 34.72 564.62 36.9801 563 39.7101L562.91 33.1C564.46 30.25 566.12 27.8301 567.89 25.8401C569.66 23.8601 571.66 22.3501 573.89 21.3301C576.12 20.3101 578.73 19.79 581.71 19.79C586.36 19.79 590.32 20.8601 593.57 23.0001C596.82 25.1401 599.31 28.13 601.01 31.98C602.72 35.83 603.57 40.2901 603.57 45.3801C603.57 50.4701 602.65 55.0901 600.82 59.0601C598.99 63.0301 596.38 66.1601 593 68.4601C589.62 70.7601 585.54 71.9001 580.76 71.9001L580.75 71.91Z" fill="#0662F4"/>
<path d="M37.15 74.2297C31.74 74.2297 26.8301 73.4497 22.4201 71.9097C18.0101 70.3597 14.17 68.0998 10.9 65.1298C7.63004 62.1598 5.12005 58.5298 3.39005 54.2598C1.65005 49.9798 0.790039 45.1197 0.790039 39.6697C0.790039 34.2197 1.66005 29.3498 3.39005 25.0798C5.13005 20.7998 7.63004 17.1797 10.9 14.2097C14.17 11.2397 18.0101 8.95976 22.4201 7.37976C26.8301 5.79976 31.74 5.00977 37.15 5.00977C42.56 5.00977 47.38 5.79976 51.83 7.37976C56.27 8.95976 60.09 11.2397 63.3 14.2097C66.51 17.1797 68.9901 20.8098 70.7601 25.0798C72.5301 29.3598 73.41 34.2197 73.41 39.6697C73.41 45.1197 72.5201 49.9898 70.7601 54.2598C68.9901 58.5398 66.5 62.1598 63.3 65.1298C60.1 68.0998 56.27 70.3697 51.83 71.9097C47.39 73.4597 42.5 74.2297 37.15 74.2297ZM37.16 65.3597C47.07 65.3597 62 61.5197 62 39.6597C62 34.6697 61.57 13.9597 37.16 13.9597C31.67 13.9597 12.19 14.8997 12.19 39.6597C12.19 44.7397 12.35 65.3597 37.16 65.3597Z" fill="#0662F4"/>
<path d="M37.2897 31.4395C40.1397 31.4395 42.3997 32.1994 44.0797 33.7194C45.7497 35.2394 46.5897 37.3294 46.5897 39.9894C46.5897 42.6494 45.7497 44.5794 44.0797 46.1194C42.4097 47.6694 40.1397 48.4395 37.2897 48.4395C34.4397 48.4395 32.3597 47.6694 30.6897 46.1194C29.0197 44.5694 28.1797 42.5294 28.1797 39.9894C28.1797 37.4494 29.0197 35.2394 30.6897 33.7194C32.3597 32.1994 34.5597 31.4395 37.2897 31.4395Z" fill="#0662F4"/>
<path d="M80.1397 81.0203C79.0497 79.5303 77.9397 78.2203 76.8397 77.0803C75.7297 75.9403 74.5997 74.8803 73.4597 73.8903C72.3097 72.9103 71.1397 71.8903 69.9397 70.8303C68.7397 69.7803 67.5197 68.6103 66.2597 67.3203C65.0097 66.0303 63.7297 64.5102 62.4297 62.7402L55.4697 67.8602C56.7697 69.6302 57.8597 71.2902 58.7397 72.8502C59.6197 74.4102 60.3797 75.9202 61.0197 77.3602C61.6597 78.8002 62.2797 80.2302 62.8897 81.6302C63.4997 83.0302 64.1697 84.4402 64.8997 85.8502C65.6297 87.2702 66.5497 88.7203 67.6397 90.2103L80.1397 81.0203Z" fill="#0662F4"/>
</svg>
