<svg width="264" height="264" viewBox="0 0 264 264" fill="none" xmlns="http://www.w3.org/2000/svg">
<path d="M173.16 0.72998H90.8405C41.0741 0.72998 0.730469 41.0736 0.730469 90.84V173.16C0.730469 222.926 41.0741 263.27 90.8405 263.27H173.16C222.927 263.27 263.27 222.926 263.27 173.16V90.84C263.27 41.0736 222.927 0.72998 173.16 0.72998Z" fill="#0662F4"/>
<path d="M131.121 115.92C126.801 115.92 123.311 117.12 120.661 119.53C118.011 121.94 116.681 125.25 116.681 129.48C116.681 133.71 118.011 136.75 120.661 139.21C123.311 141.67 126.801 142.89 131.121 142.89C135.441 142.89 139.221 141.66 141.881 139.21C144.531 136.76 145.861 133.51 145.861 129.48C145.861 125.45 144.531 121.94 141.881 119.53C139.231 117.12 135.641 115.92 131.121 115.92Z" fill="white"/>
<path d="M193.82 188.29C192.06 186.48 190.28 184.8 188.46 183.24C186.64 181.68 184.78 180.07 182.89 178.4C180.99 176.73 179.05 174.88 177.06 172.84C175.8 171.55 174.52 170.08 173.23 168.48C177.88 163.93 181.54 158.48 184.18 152.1C186.98 145.32 188.39 137.61 188.39 128.97C188.39 120.33 186.99 112.61 184.18 105.83C181.37 99.05 177.43 93.3 172.35 88.59C167.27 83.88 161.2 80.26 154.16 77.76C147.12 75.26 139.36 74 130.89 74C122.42 74 114.53 75.25 107.54 77.76C100.55 80.27 94.4602 83.88 89.2802 88.59C84.0902 93.31 80.1202 99.05 77.3702 105.83C74.6202 112.61 73.2402 120.32 73.2402 128.97C73.2402 137.62 74.6102 145.33 77.3702 152.1C80.1202 158.88 84.0902 164.63 89.2802 169.34C94.4702 174.06 100.56 177.64 107.54 180.1C114.53 182.56 122.31 183.78 130.89 183.78C139.47 183.78 147.12 182.55 154.16 180.1C156.94 179.13 159.56 177.98 162.03 176.66C163.19 178.37 164.23 180.03 165.13 181.61C166.52 184.09 167.73 186.47 168.74 188.76C169.75 191.05 170.74 193.3 171.7 195.52C172.66 197.74 173.72 199.98 174.89 202.22C176.05 204.46 177.5 206.77 179.24 209.13L199.07 194.55C197.33 192.19 195.59 190.1 193.83 188.3L193.82 188.29ZM130.91 169.7C91.5802 169.7 91.3203 137.01 91.3203 128.95C91.3203 89.69 122.2 88.2 130.91 88.2C169.62 88.2 170.3 121.04 170.3 128.95C170.3 163.6 146.62 169.7 130.91 169.7Z" fill="white"/>
</svg>
