<?xml version="1.0" encoding="utf-8"?>
<!-- Generator: Adobe Illustrator 26.0.3, SVG Export Plug-In . SVG Version: 6.00 Build 0)  -->
<svg version="1.1" id="Layer_1" xmlns="http://www.w3.org/2000/svg" xmlns:xlink="http://www.w3.org/1999/xlink" x="0px" y="0px"
	 viewBox="0 0 153.5 153.5" style="enable-background:new 0 0 153.5 153.5;" xml:space="preserve">
<style type="text/css">
	.st0{fill:#0662F4;}
</style>
<g>
	<path class="st0" d="M75.9,60.7c-4.3,0-7.8,1.2-10.5,3.6s-4,5.7-4,10s1.3,7.3,4,9.7c2.7,2.5,6.1,3.7,10.5,3.7S84,86.4,86.6,84
		c2.7-2.5,4-5.7,4-9.7s-1.3-7.5-4-10C84,61.9,80.4,60.7,75.9,60.7z"/>
	<path class="st0" d="M138.6,133c-1.8-1.8-3.5-3.5-5.4-5c-1.8-1.6-3.7-3.2-5.6-4.8c-1.9-1.7-3.8-3.5-5.8-5.6
		c-1.3-1.3-2.5-2.8-3.8-4.4c4.7-4.5,8.3-10,11-16.4c2.8-6.8,4.2-14.5,4.2-23.1s-1.4-16.4-4.2-23.1c-2.8-6.8-6.7-12.5-11.8-17.2
		S105.9,25,98.9,22.5s-14.8-3.8-23.3-3.8S59.3,20,52.3,22.5S39.2,28.6,34,33.3c-5.2,4.7-9.2,10.5-11.9,17.2
		C19.4,57.4,18,65.1,18,73.7s1.4,16.4,4.1,23.1c2.8,6.8,6.7,12.5,11.9,17.2c5.2,4.7,11.3,8.3,18.3,10.8c7,2.5,14.8,3.7,23.3,3.7
		s16.2-1.2,23.3-3.7c2.8-1,5.4-2.1,7.9-3.4c1.2,1.7,2.2,3.4,3.1,5c1.4,2.5,2.6,4.9,3.6,7.2c1,2.3,2,4.5,3,6.8c1,2.2,2,4.5,3.2,6.7
		c1.2,2.2,2.6,4.5,4.3,6.9l19.8-14.6C142.1,136.9,140.3,134.8,138.6,133L138.6,133z M75.7,114.4c-39.3,0-39.6-32.7-39.6-40.8
		c0-39.3,30.9-40.8,39.6-40.8c38.7,0,39.4,32.8,39.4,40.8C115,108.3,91.4,114.4,75.7,114.4z"/>
</g>
</svg>
