<?xml version="1.0" encoding="UTF-8"?>
<svg id="Layer_1" data-name="Layer 1" xmlns="http://www.w3.org/2000/svg" viewBox="0 0 1080 1080">
  <defs>
    <style>
      .cls-1 {
        fill: #0662f4;
      }

      .cls-2 {
        fill: #fff;
      }
    </style>
  </defs>
  <rect class="cls-1" y="381.82" width="1080" height="309.1"/>
  <g>
    <g>
      <path class="cls-2" d="M349.24,534.46v5.77c-3.1.43-5.77.95-8,1.54-2.23.59-4.09,1.24-5.58,1.95-1.49.71-2.64,1.49-3.44,2.33-.81.84-1.38,1.77-1.72,2.79-.34,1.02-.51,2.13-.51,3.3,0,1.68.28,3.02.84,4.05s1.36,1.78,2.42,2.28c1.05.5,2.33.74,3.81.74s2.99-.37,4.33-1.12c1.33-.74,2.64-1.88,3.91-3.4,1.27-1.52,2.56-3.46,3.86-5.82l.47,5.12c-1.24,2.61-2.67,4.79-4.28,6.56-1.61,1.77-3.46,3.1-5.54,4-2.08.9-4.45,1.35-7.12,1.35-3.29,0-6.11-.48-8.47-1.44-2.36-.96-4.16-2.43-5.4-4.42-1.24-1.98-1.86-4.43-1.86-7.35,0-2.61.59-4.87,1.77-6.79,1.18-1.92,3.05-3.6,5.63-5.02,2.57-1.43,5.91-2.65,10-3.68,4.09-1.02,9.06-1.94,14.89-2.75ZM349.43,564.89l-1.12-10.42-.56-.09v-26.15c0-1.8-.25-3.24-.74-4.33-.5-1.08-1.35-1.89-2.56-2.42-1.21-.53-2.9-.79-5.07-.79-3.16,0-5.77.44-7.82,1.3-2.05.87-3.51,1.8-4.37,2.79-.31-.37-.43-.82-.37-1.35.06-.53.28-1.02.65-1.49.37-.47.9-.87,1.58-1.21.68-.34,1.49-.54,2.42-.6v10.79h-11.54v-11.63c.93-.68,2.31-1.44,4.14-2.28,1.83-.84,4.12-1.58,6.89-2.23,2.76-.65,5.94-.98,9.54-.98,3.1,0,5.92.28,8.47.84,2.54.56,4.71,1.46,6.51,2.7,1.8,1.24,3.19,2.82,4.19,4.75.99,1.92,1.49,4.22,1.49,6.89v26.52c0,.68.23,1.23.7,1.63.46.4,1.13.71,2,.93.87.22,1.92.42,3.16.6l.56.19v6.05h-18.14Z"/>
      <path class="cls-2" d="M395.39,513.81c2.92,0,5.49.51,7.72,1.54,2.23,1.02,4.23,2.53,6,4.51,1.77,1.99,3.3,4.41,4.61,7.26l-.19,6.51c-1.55-2.67-3.09-4.89-4.61-6.65-1.52-1.77-3.1-3.08-4.75-3.95-1.64-.87-3.52-1.3-5.63-1.3-1.99,0-3.72.39-5.21,1.16-1.49.78-2.73,1.95-3.72,3.54-.99,1.58-1.72,3.54-2.19,5.86-.46,2.33-.7,5.01-.7,8.05s.2,5.48.6,7.68c.4,2.2,1.05,4.06,1.95,5.58.9,1.52,2.06,2.65,3.49,3.4,1.43.74,3.1,1.12,5.02,1.12,2.17,0,4.11-.45,5.82-1.35,1.71-.9,3.36-2.29,4.98-4.19,1.61-1.89,3.29-4.29,5.02-7.21l.09,6.42c-1.55,2.98-3.21,5.52-4.98,7.63-1.77,2.11-3.81,3.72-6.14,4.84s-5.04,1.67-8.14,1.67c-4.65,0-8.61-1.07-11.86-3.21s-5.74-5.13-7.44-8.98c-1.71-3.85-2.56-8.31-2.56-13.4s.91-9.71,2.75-13.68c1.83-3.97,4.45-7.1,7.86-9.4,3.41-2.29,7.47-3.44,12.19-3.44ZM424.52,555.49c0,1.12.53,1.86,1.58,2.23,1.05.37,2.48.68,4.28.93l.56.19v6.05h-18.24l-1.21-11.26-.65.56v-49.97c0-.81-.2-1.4-.6-1.77-.4-.37-1.04-.7-1.91-.98-.87-.28-1.92-.54-3.16-.79l-.84-.19v-6.14h20.19v61.13Z"/>
      <path class="cls-2" d="M469.74,534.46v5.77c-3.1.43-5.77.95-8,1.54-2.23.59-4.09,1.24-5.58,1.95-1.49.71-2.64,1.49-3.44,2.33-.81.84-1.38,1.77-1.72,2.79-.34,1.02-.51,2.13-.51,3.3,0,1.68.28,3.02.84,4.05s1.36,1.78,2.42,2.28c1.05.5,2.33.74,3.81.74s2.99-.37,4.33-1.12c1.33-.74,2.64-1.88,3.91-3.4,1.27-1.52,2.56-3.46,3.86-5.82l.47,5.12c-1.24,2.61-2.67,4.79-4.28,6.56-1.61,1.77-3.46,3.1-5.54,4-2.08.9-4.45,1.35-7.12,1.35-3.29,0-6.11-.48-8.47-1.44-2.36-.96-4.16-2.43-5.4-4.42-1.24-1.98-1.86-4.43-1.86-7.35,0-2.61.59-4.87,1.77-6.79,1.18-1.92,3.05-3.6,5.63-5.02,2.57-1.43,5.91-2.65,10-3.68,4.09-1.02,9.06-1.94,14.89-2.75ZM469.93,564.89l-1.12-10.42-.56-.09v-26.15c0-1.8-.25-3.24-.74-4.33-.5-1.08-1.35-1.89-2.56-2.42-1.21-.53-2.9-.79-5.07-.79-3.16,0-5.77.44-7.82,1.3-2.05.87-3.51,1.8-4.37,2.79-.31-.37-.43-.82-.37-1.35.06-.53.28-1.02.65-1.49.37-.47.9-.87,1.58-1.21.68-.34,1.49-.54,2.42-.6v10.79h-11.54v-11.63c.93-.68,2.31-1.44,4.14-2.28,1.83-.84,4.12-1.58,6.89-2.23,2.76-.65,5.94-.98,9.54-.98,3.1,0,5.92.28,8.47.84,2.54.56,4.71,1.46,6.51,2.7,1.8,1.24,3.19,2.82,4.19,4.75.99,1.92,1.49,4.22,1.49,6.89v26.52c0,.68.23,1.23.7,1.63.46.4,1.13.71,2,.93.87.22,1.92.42,3.16.6l.56.19v6.05h-18.14Z"/>
      <path class="cls-2" d="M493.19,564.89v-5.58h.28c1.86,0,3.35-.33,4.47-.98,1.12-.65,1.67-1.94,1.67-3.86v-29.87c0-.74-.2-1.32-.61-1.72-.4-.4-1.02-.73-1.86-.98-.84-.25-1.88-.5-3.12-.74l-.84-.19v-6.23h18.33l1.21,11.17.56.28v32.29c0,.19.28.34.84.47.56.12,1.21.22,1.96.28.74.06,1.43.09,2.05.09h.37v5.58h-25.31ZM549.2,564.89h-24.1v-5.58h.28c.68,0,1.41-.03,2.19-.09.78-.06,1.43-.15,1.96-.28.53-.12.79-.28.79-.47v-29.12c0-1.61-.17-2.95-.51-4-.34-1.05-.9-1.85-1.68-2.37-.78-.53-1.88-.79-3.3-.79-1.55,0-3.06.39-4.51,1.16-1.46.78-2.93,1.95-4.42,3.54-1.49,1.58-3.07,3.61-4.74,6.09l.19-6.7c1.61-2.61,3.35-4.82,5.21-6.65,1.86-1.83,3.94-3.27,6.23-4.33,2.29-1.05,4.75-1.58,7.35-1.58,2.91,0,5.41.56,7.49,1.67,2.08,1.12,3.66,2.78,4.74,4.98,1.09,2.2,1.63,4.95,1.63,8.23v29.87c0,.19.28.34.84.47.56.12,1.22.22,2,.28.78.06,1.5.09,2.19.09h.19v5.58ZM581.21,564.89h-25.4v-5.58h.28c.68,0,1.41-.03,2.19-.09.78-.06,1.43-.15,1.96-.28.53-.12.79-.28.79-.47v-29.12c0-1.61-.17-2.95-.51-4-.34-1.05-.9-1.85-1.67-2.37-.78-.53-1.88-.79-3.3-.79-1.55,0-3.07.4-4.56,1.21-1.49.81-2.96,1.99-4.42,3.54-1.46,1.55-3.02,3.54-4.7,5.96l.19-6.61c1.61-2.61,3.36-4.84,5.26-6.7,1.89-1.86,3.96-3.3,6.19-4.33,2.23-1.02,4.65-1.54,7.26-1.54,2.98,0,5.49.56,7.54,1.67,2.05,1.12,3.63,2.78,4.74,4.98,1.12,2.2,1.68,4.95,1.68,8.23v25.87c0,1.92.56,3.21,1.67,3.86,1.12.65,2.61.98,4.47.98h.37v5.58Z"/>
      <path class="cls-2" d="M587.35,505.25v-6.42h31.82c5.33,0,10.16.7,14.47,2.09,4.31,1.4,8.03,3.46,11.17,6.19,3.13,2.73,5.54,6.14,7.21,10.24s2.51,8.84,2.51,14.24-.84,10.08-2.51,14.24c-1.67,4.16-4.08,7.65-7.21,10.47-3.13,2.82-6.85,4.96-11.17,6.42-4.31,1.46-9.13,2.19-14.47,2.19h-31.82v-6.42h1.12c1.8,0,3.32-.22,4.56-.65,1.24-.43,1.86-1.33,1.86-2.7v-46.52c0-1.3-.62-2.19-1.86-2.65-1.24-.47-2.76-.7-4.56-.7h-1.12ZM618.25,505.71h-9.03v52.29h9.03c3.41,0,6.42-.56,9.03-1.67,2.6-1.12,4.81-2.78,6.61-4.98,1.8-2.2,3.16-4.96,4.09-8.28.93-3.32,1.4-7.15,1.4-11.49s-.46-8.14-1.4-11.4-2.3-5.96-4.09-8.1c-1.8-2.14-4-3.74-6.61-4.79-2.61-1.05-5.62-1.58-9.03-1.58Z"/>
      <path class="cls-2" d="M695.1,534.46v5.77c-3.1.43-5.77.95-8,1.54-2.23.59-4.09,1.24-5.58,1.95-1.49.71-2.64,1.49-3.44,2.33-.81.84-1.38,1.77-1.72,2.79-.34,1.02-.51,2.13-.51,3.3,0,1.68.28,3.02.84,4.05.56,1.02,1.36,1.78,2.42,2.28,1.05.5,2.33.74,3.81.74s2.99-.37,4.33-1.12c1.33-.74,2.64-1.88,3.91-3.4,1.27-1.52,2.56-3.46,3.86-5.82l.47,5.12c-1.24,2.61-2.67,4.79-4.28,6.56-1.61,1.77-3.46,3.1-5.54,4-2.08.9-4.45,1.35-7.12,1.35-3.29,0-6.11-.48-8.47-1.44-2.36-.96-4.16-2.43-5.4-4.42-1.24-1.98-1.86-4.43-1.86-7.35,0-2.61.59-4.87,1.77-6.79,1.18-1.92,3.05-3.6,5.63-5.02,2.57-1.43,5.91-2.65,10-3.68,4.09-1.02,9.06-1.94,14.89-2.75ZM695.29,564.89l-1.12-10.42-.56-.09v-26.15c0-1.8-.25-3.24-.74-4.33-.5-1.08-1.35-1.89-2.56-2.42-1.21-.53-2.9-.79-5.07-.79-3.16,0-5.77.44-7.82,1.3-2.05.87-3.51,1.8-4.37,2.79-.31-.37-.43-.82-.37-1.35.06-.53.28-1.02.65-1.49s.9-.87,1.58-1.21c.68-.34,1.49-.54,2.42-.6v10.79h-11.54v-11.63c.93-.68,2.31-1.44,4.14-2.28,1.83-.84,4.12-1.58,6.89-2.23,2.76-.65,5.94-.98,9.54-.98,3.1,0,5.92.28,8.47.84,2.54.56,4.71,1.46,6.51,2.7,1.8,1.24,3.19,2.82,4.19,4.75.99,1.92,1.49,4.22,1.49,6.89v26.52c0,.68.23,1.23.7,1.63.47.4,1.13.71,2,.93.87.22,1.92.42,3.16.6l.56.19v6.05h-18.14Z"/>
      <path class="cls-2" d="M746.65,585.64h-28.1v-5.58h.28c1.24,0,2.31-.14,3.21-.42.9-.28,1.6-.78,2.09-1.49.5-.71.74-1.69.74-2.93v-50.62c0-.74-.2-1.32-.6-1.72-.4-.4-1.02-.73-1.86-.98-.84-.25-1.88-.5-3.12-.74l-.84-.19v-6.23h18.33l1.21,12.65.56.37v51.46c0,.19.34.34,1.02.47.68.12,1.54.22,2.56.28,1.02.06,2,.09,2.93.09h1.58v5.58ZM754,565.91c-2.73,0-5.18-.47-7.35-1.4-2.17-.93-4.13-2.29-5.86-4.09-1.74-1.8-3.29-3.97-4.65-6.51l.19-7.16c1.43,2.42,2.87,4.47,4.33,6.14,1.46,1.67,3.01,2.96,4.65,3.86,1.64.9,3.49,1.35,5.54,1.35s3.8-.4,5.26-1.21c1.46-.81,2.68-2,3.68-3.58.99-1.58,1.72-3.54,2.19-5.86.46-2.33.7-5.01.7-8.05s-.22-5.47-.65-7.68c-.43-2.2-1.09-4.05-1.95-5.54-.87-1.49-2-2.61-3.4-3.35-1.4-.74-3.09-1.12-5.07-1.12-2.11,0-4.02.42-5.72,1.26-1.71.84-3.34,2.16-4.89,3.95-1.55,1.8-3.13,4.06-4.75,6.79l-.09-6.61c1.55-2.85,3.21-5.27,4.98-7.26,1.77-1.98,3.77-3.49,6-4.51,2.23-1.02,4.84-1.54,7.82-1.54,4.65,0,8.61,1.07,11.86,3.21s5.74,5.13,7.44,8.98c1.71,3.85,2.56,8.31,2.56,13.4s-.92,9.71-2.75,13.68c-1.83,3.97-4.44,7.1-7.82,9.4-3.38,2.3-7.46,3.44-12.24,3.44Z"/>
      <path class="cls-2" d="M809,585.64h-28.1v-5.58h.28c1.24,0,2.31-.14,3.21-.42.9-.28,1.6-.78,2.09-1.49.5-.71.74-1.69.74-2.93v-50.62c0-.74-.2-1.32-.6-1.72-.4-.4-1.02-.73-1.86-.98-.84-.25-1.88-.5-3.12-.74l-.84-.19v-6.23h18.33l1.21,12.65.56.37v51.46c0,.19.34.34,1.02.47.68.12,1.54.22,2.56.28,1.02.06,2,.09,2.93.09h1.58v5.58ZM816.35,565.91c-2.73,0-5.18-.47-7.35-1.4-2.17-.93-4.13-2.29-5.86-4.09-1.74-1.8-3.29-3.97-4.65-6.51l.19-7.16c1.43,2.42,2.87,4.47,4.33,6.14,1.46,1.67,3.01,2.96,4.65,3.86,1.64.9,3.49,1.35,5.54,1.35s3.8-.4,5.26-1.21c1.46-.81,2.68-2,3.68-3.58.99-1.58,1.72-3.54,2.19-5.86.46-2.33.7-5.01.7-8.05s-.22-5.47-.65-7.68c-.43-2.2-1.09-4.05-1.95-5.54-.87-1.49-2-2.61-3.4-3.35-1.4-.74-3.09-1.12-5.07-1.12-2.11,0-4.02.42-5.72,1.26-1.71.84-3.34,2.16-4.89,3.95-1.55,1.8-3.13,4.06-4.75,6.79l-.09-6.61c1.55-2.85,3.21-5.27,4.98-7.26,1.77-1.98,3.77-3.49,6-4.51,2.23-1.02,4.84-1.54,7.82-1.54,4.65,0,8.61,1.07,11.86,3.21s5.74,5.13,7.44,8.98c1.71,3.85,2.56,8.31,2.56,13.4s-.92,9.71-2.75,13.68c-1.83,3.97-4.44,7.1-7.82,9.4-3.38,2.3-7.46,3.44-12.24,3.44Z"/>
    </g>
    <g>
      <path class="cls-2" d="M274.15,568.23c-5.41,0-10.32-.78-14.73-2.32-4.41-1.55-8.25-3.81-11.52-6.78-3.27-2.97-5.78-6.6-7.51-10.87-1.74-4.28-2.6-9.14-2.6-14.59s.87-10.32,2.6-14.59c1.74-4.28,4.24-7.9,7.51-10.87,3.27-2.97,7.11-5.25,11.52-6.83,4.41-1.58,9.32-2.37,14.73-2.37s10.23.79,14.68,2.37c4.44,1.58,8.26,3.86,11.47,6.83,3.21,2.97,5.69,6.6,7.46,10.87,1.77,4.28,2.65,9.14,2.65,14.59s-.89,10.32-2.65,14.59c-1.77,4.28-4.26,7.9-7.46,10.87s-7.03,5.24-11.47,6.78c-4.44,1.55-9.33,2.32-14.68,2.32ZM274.16,559.36c9.91,0,24.84-3.84,24.84-25.7,0-4.99-.43-25.7-24.84-25.7-5.49,0-24.97.94-24.97,25.7,0,5.08.16,25.7,24.97,25.7Z"/>
      <path class="cls-2" d="M274.29,525.44c2.85,0,5.11.76,6.79,2.28,1.67,1.52,2.51,3.61,2.51,6.27s-.84,4.59-2.51,6.13c-1.67,1.55-3.94,2.32-6.79,2.32s-4.93-.77-6.6-2.32c-1.67-1.55-2.51-3.59-2.51-6.13s.84-4.75,2.51-6.27c1.67-1.52,3.87-2.28,6.6-2.28Z"/>
      <path class="cls-2" d="M317.14,575.02c-1.09-1.49-2.2-2.8-3.3-3.94-1.11-1.14-2.24-2.2-3.38-3.19-1.15-.98-2.32-2-3.52-3.06-1.2-1.05-2.42-2.22-3.68-3.51-1.25-1.29-2.53-2.81-3.83-4.58l-6.96,5.12c1.3,1.77,2.39,3.43,3.27,4.99.88,1.56,1.64,3.07,2.28,4.51.64,1.44,1.26,2.87,1.87,4.27.61,1.4,1.28,2.81,2.01,4.22.73,1.42,1.65,2.87,2.74,4.36l12.5-9.19Z"/>
    </g>
  </g>
</svg>